<svg version="1.1" viewBox="0.0 0.0 726.2283464566929 719.7034120734908" fill="none" stroke="none" stroke-linecap="square" stroke-miterlimit="10" xmlns:xlink="http://www.w3.org/1999/xlink" xmlns="http://www.w3.org/2000/svg"><clipPath id="p.0"><path d="m0 0l726.22833 0l0 719.7034l-726.22833 0l0 -719.7034z" clip-rule="nonzero"/></clipPath><g clip-path="url(#p.0)"><path fill="#000000" fill-opacity="0.0" d="m0 0l726.22833 0l0 719.7034l-726.22833 0z" fill-rule="evenodd"/><path fill="#cc0000" d="m2.6692913 364.44882l0 0c0 -198.82251 161.17749 -360.0 360.0 -360.0l0 0c95.477936 0 187.04538 37.928463 254.55844 105.44156c67.51312 67.51309 105.44159 159.0805 105.44159 254.55844l0 0c0 198.82248 -161.17749 359.99997 -360.00003 359.99997l0 0c-198.8225 0 -360.0 -161.17749 -360.0 -359.99997zm558.10596 106.672455c47.107483 -87.48523 31.252502 -195.51205 -39.006958 -265.77148c-70.25943 -70.25943 -178.28625 -86.1144 -265.77148 -39.006973zm-396.21198 -213.34491l0 0c-47.107437 87.48523 -31.252472 195.51205 39.006973 265.77148c70.259445 70.25946 178.28624 86.11438 265.77148 39.006958z" fill-rule="evenodd"/></g></svg>